<svg id="Layer_1" enable-background="new 0 0 513.543 513.543" height="512" viewBox="0 0 513.543 513.543" width="512" xmlns="http://www.w3.org/2000/svg"><path d="m16.004 256.772v240h481.539v-86.149c-153.077-78.146-311.99-143.181-481.539-153.851z" fill="#9bd65e"/><circle cx="367.415" cy="146.976" fill="#fdaa6a" r="52.659"/><path d="m367.415 199.635c41.465 0 66.293-45.637 44.791-80.346-19.566 37.876-7.974 48.684-50.432 56.482-10.095 1.854-23.458 2.083-37.3 1.665 9.542 13.429 25.212 22.199 42.941 22.199z" fill="#f0a567"/><path d="m375.43 94.924c-43.327-6.622-74.856 39.322-54.325 77.14 29.367-66.193 37.468-59.745 54.325-77.14z" fill="#fcbc80"/><path d="m16.004 492.035c3.431 1.566 6.943 3.146 10.517 4.736h471.022v-86.149c-69.798-35.632-140.81-68.535-213.49-94.804-7.085 13.882-23.442 27.336-63.279 21.953-74-10-119-5-139 17.5-9.148 10.291-37.96 28.39-65.77 46.875z" fill="#91c656"/><path d="m16.004 256.772v35.624c3.073-1.466 5.719-3 7.77-4.497 19-13.873 16-10.127 66-1.06 20.805 3.773 38.662-3.053 52.428-12.308-41.442-8.929-83.482-15.071-126.198-17.759z" fill="#aced70"/><path d="m497.543 317.781v178.99h-481.539v-35.931c153.078-78.146 311.99-132.389 481.539-143.059z" fill="#9bd65e"/><path d="m497.543 317.781c-124.85 7.857-243.932 39.343-359.165 86.6 10.746 8.144 34.114 15.979 83.395 2.896 81-21.505 98.481-62.505 170.24-47.505 36.23 7.573 75.573 10.045 105.529 7.293v-49.284z" fill="#aced70"/><path d="m497.543 496.772v-54.942c-12.228 5.182-32.536 9.208-67.77 7.893-79-2.95-90-24.134-154 7.458-27.772 13.709-57.235 27.869-81.451 39.592h303.221z" fill="#91c656"/><path d="m496.538 301.813c-49.761 3.131-99.808 10.048-150.432 20.825-118.599-48.579-226.302-75.366-329.097-81.835-9.272-.561-17.005 6.783-17.005 15.969 0 251.951-.025 240.297.048 240.942.49 8.396 7.434 15.058 15.952 15.058h481.539c8.837 0 16-7.163 16-16v-178.99c0-9.183-7.726-16.529-17.005-15.969zm-204.916 33.859c-84.249 22.351-170.351 55.302-259.618 99.25v-160.923c81.811 6.966 167.29 27.264 259.618 61.673zm189.921 145.1h-449.539v-10.105c157.997-79.567 305.338-124.056 449.539-135.696z"/><path d="m368.391 52.172c8.837 0 16-7.163 16-16v-19.4c0-8.837-7.163-16-16-16s-16 7.163-16 16v19.4c0 8.837 7.163 16 16 16z"/><path d="m352.391 254.136v19.4c0 8.837 7.163 16 16 16s16-7.163 16-16v-19.4c0-8.837-7.163-16-16-16s-16 7.163-16 16z"/><path d="m445.453 84.092c4.095 0 8.189-1.563 11.313-4.687l13.718-13.718c6.249-6.248 6.249-16.379 0-22.627-6.248-6.248-16.379-6.248-22.627 0l-13.717 13.718c-10.109 10.108-2.812 27.314 11.313 27.314z"/><path d="m280.016 210.903-13.718 13.718c-6.249 6.248-6.249 16.379 0 22.627 6.249 6.249 16.379 6.248 22.627 0l13.718-13.718c6.249-6.248 6.249-16.379 0-22.627-6.248-6.249-16.379-6.249-22.627 0z"/><path d="m434.14 210.903c-6.249 6.248-6.249 16.379 0 22.627l13.718 13.718c6.249 6.249 16.379 6.248 22.627 0 6.249-6.248 6.249-16.379 0-22.627l-13.718-13.718c-6.248-6.249-16.379-6.249-22.627 0z"/><path d="m280.016 79.405c6.249 6.249 16.379 6.248 22.627 0 6.249-6.248 6.249-16.379 0-22.627l-13.718-13.718c-6.248-6.248-16.379-6.248-22.627 0-6.249 6.248-6.249 16.379 0 22.627z"/><path d="m367.415 215.635c37.858 0 68.658-30.801 68.658-68.659s-30.8-68.658-68.658-68.658-68.659 30.8-68.659 68.658 30.801 68.659 68.659 68.659zm0-105.317c20.214 0 36.658 16.444 36.658 36.658s-16.444 36.659-36.658 36.659-36.659-16.445-36.659-36.659 16.446-36.658 36.659-36.658z"/><path d="m461.373 145.154c0 8.837 7.163 16 16 16h19.4c8.837 0 16-7.163 16-16s-7.163-16-16-16h-19.4c-8.837 0-16 7.164-16 16z"/><path d="m240.009 161.154h19.4c8.837 0 16-7.163 16-16s-7.163-16-16-16h-19.4c-8.836 0-16 7.163-16 16s7.164 16 16 16z"/><path d="m16.774 197.535c8.836 0 16-7.163 16-16 0-15.816 12.868-28.684 28.684-28.684 12.622 0 23.932 8.446 27.505 20.541 3.109 10.523 15.702 14.896 24.666 8.471 18.778-13.462 45.358-.079 45.358 23.328 0 8.837 7.164 16 16 16s16-7.163 16-16c0-41.029-40.179-70.441-79.373-57.751-11.117-16.233-29.833-26.589-50.156-26.589-33.461 0-60.684 27.223-60.684 60.684 0 8.837 7.163 16 16 16z"/></svg>