<?xml version="1.0" encoding="iso-8859-1"?>
<!-- Generator: Adobe Illustrator 19.0.0, SVG Export Plug-In . SVG Version: 6.00 Build 0)  -->
<svg version="1.1" id="Capa_1" xmlns="http://www.w3.org/2000/svg" xmlns:xlink="http://www.w3.org/1999/xlink" x="0px" y="0px"
	 viewBox="0 0 512 512" style="enable-background:new 0 0 512 512;" xml:space="preserve">
<path style="fill:#93918F;" d="M217.551,497.184l91.802-152.791l-52.256-85.118L237.4,278.268c-2.645,2.55-6.963,2.037-8.935-1.063
	l-19.516-30.667c-1.934-3.039-6.138-3.604-8.806-1.185l-17.34,15.727c-2.71,2.458-6.99,1.83-8.879-1.303l-10.577-17.54
	L8.462,494.526c-2.677,4.36,0.46,9.967,5.577,9.967h207.602C217.889,504.494,215.587,500.383,217.551,497.184z"/>
<circle style="fill:#FAC158;" cx="386.455" cy="113.734" r="58.002"/>
<path style="fill:#EFAA3A;" d="M348.45,113.737c0-28.621,20.737-52.384,48.002-57.125c-3.25-0.565-6.588-0.877-10-0.877
	c-32.033,0-58.002,25.969-58.002,58.002c0,32.034,25.969,58.002,58.002,58.002c3.412,0,6.75-0.312,10-0.877
	C369.187,166.122,348.45,142.359,348.45,113.737z"/>
<path style="fill:#827F7D;" d="M28.949,494.526l144.552-235.455l-10.151-16.834L8.462,494.526c-2.677,4.36,0.46,9.967,5.577,9.967
	h20.487C29.409,504.494,26.272,498.886,28.949,494.526z"/>
<path style="fill:#C0CDCE;" d="M182.805,263.081l17.34-15.727c2.668-2.419,6.872-1.854,8.805,1.185l19.516,30.667
	c1.972,3.1,6.29,3.613,8.935,1.063l20.467-19.736l-38.223-62.259c-8.059-13.128-21.248-13.128-29.307,0l-27.599,44.955
	l11.186,18.549C175.815,264.91,180.095,265.539,182.805,263.081z"/>
<path style="fill:#AAB9BA;" d="M215.235,192.814l-0.001-0.001c-2.678-2.471-5.922-4.161-9.545-4.358
	c-0.028-0.001-0.056-0.002-0.085-0.003c-6.512-0.313-11.84,4.244-15.266,9.822l-27.599,44.955l10.151,16.834l37.934-61.789
	C212.168,196.087,213.655,194.272,215.235,192.814z"/>
<path style="fill:#827F7D;" d="M503.756,497.185l-92.41-150.524l-18.683,18.016c-2.645,2.55-6.963,2.036-8.935-1.063l-19.516-30.667
	c-1.934-3.039-6.137-3.604-8.805-1.184l-17.34,15.727c-2.71,2.458-6.99,1.83-8.879-1.304l-10.374-17.202L215.55,497.185
	c-1.963,3.197,0.338,7.308,4.089,7.308h280.027C503.419,504.494,505.719,500.383,503.756,497.185z"/>
<path style="fill:#706D6B;" d="M236.037,497.185l92.929-151.368l-10.152-16.834L215.55,497.185
	c-1.963,3.197,0.338,7.308,4.089,7.308h20.487C236.375,504.494,234.075,500.383,236.037,497.185z"/>
<path style="fill:#C0CDCE;" d="M370.399,279.962c-5.909-9.625-15.58-9.625-21.489,0l-30.703,50.012l10.982,18.211
	c1.889,3.133,6.169,3.761,8.879,1.304l17.34-15.727c2.668-2.42,6.872-1.854,8.805,1.184l19.516,30.667
	c1.972,3.1,6.29,3.613,8.935,1.063l19.454-18.759L370.399,279.962z"/>
<path style="fill:#AAB9BA;" d="M369.897,279.225c-2.173-3.237-5.277-5.925-9.114-6.395c-0.049-0.006-0.099-0.006-0.148-0.011
	c-4.894-0.523-9.009,2.8-11.635,7.011c-0.029,0.046-0.061,0.085-0.089,0.132l-17.518,28.533l-13.186,21.478l10.151,16.834
	C373.592,273.128,369.071,280.456,369.897,279.225z"/>
<path d="M386.472,36.234c4.142,0,7.5-3.358,7.5-7.5V7.504c0-4.142-3.358-7.5-7.5-7.5c-4.142,0-7.5,3.358-7.5,7.5v21.229
	C378.972,32.875,382.33,36.234,386.472,36.234z"/>
<path d="M378.972,198.74v21.229c0,4.142,3.358,7.5,7.5,7.5c4.142,0,7.5-3.358,7.5-7.5V198.74c0-4.142-3.358-7.5-7.5-7.5
	C382.33,191.24,378.972,194.598,378.972,198.74z"/>
<path d="M321.063,58.934c2.929,2.929,7.678,2.929,10.606,0c2.929-2.929,2.929-7.678,0-10.606l-15.012-15.012
	c-2.929-2.929-7.678-2.929-10.606,0c-2.929,2.929-2.929,7.678,0,10.606L321.063,58.934z"/>
<path d="M441.276,168.54c-2.929,2.929-2.929,7.678,0,10.606l15.012,15.012c2.929,2.929,7.678,2.929,10.606,0
	c2.929-2.929,2.929-7.678,0-10.606l-15.012-15.012C448.953,165.611,444.204,165.611,441.276,168.54z"/>
<path d="M280.24,121.237h21.229c4.142,0,7.5-3.358,7.5-7.5s-3.358-7.5-7.5-7.5H280.24c-4.142,0-7.5,3.358-7.5,7.5
	S276.098,121.237,280.24,121.237z"/>
<path d="M463.976,113.737c0,4.142,3.358,7.5,7.5,7.5h21.229c4.142,0,7.5-3.358,7.5-7.5s-3.358-7.5-7.5-7.5h-21.229
	C467.334,106.236,463.976,109.595,463.976,113.737z"/>
<path d="M321.063,168.54l-15.012,15.012c-2.929,2.929-2.929,7.678,0,10.606c2.929,2.929,7.678,2.929,10.606,0l15.012-15.012
	c2.929-2.929,2.929-7.678,0-10.606C328.74,165.611,323.991,165.611,321.063,168.54z"/>
<path d="M451.882,58.934l15.012-15.012c2.929-2.929,2.929-7.678,0-10.606c-2.929-2.929-7.678-2.929-10.606,0l-15.012,15.012
	c-2.929,2.929-2.929,7.678,0,10.606C444.205,61.864,448.953,61.863,451.882,58.934z"/>
<path d="M510.168,493.261L376.811,276.038c-3.791-6.174-9.84-10.794-17.137-10.794l0,0l0,0c-6.261,0-12.141,3.458-16.323,9.543
	c-0.279,0.406-0.55,0.823-0.813,1.252l-33.164,54.02l-83.315-135.711c-4.687-7.635-12.098-13.422-21.046-13.422
	c-8.138,0-15.809,4.892-21.045,13.423C181.191,198.874,7.744,481.395,2.091,490.602c-5.733,9.338,1.003,21.393,11.968,21.393
	c15.675,0,312.898,0,328.114,0c4.142,0,7.5-3.358,7.5-7.5c0-4.142-3.358-7.5-7.5-7.5H224.49l0,0l93.68-152.59l4.616,7.655
	c4.331,7.183,14.138,8.613,20.341,2.986l15.855-14.38l18.439,28.976c4.525,7.111,14.419,8.27,20.47,2.436l12.738-12.283l84.23,137.2
	H377.175c-4.142,0-7.5,3.358-7.5,7.5c0,4.142,3.358,7.5,7.5,7.5h122.513C509.284,511.994,515.193,501.445,510.168,493.261z
	 M213.274,202.197l35.067,57.121l-14.639,14.116l-18.405-28.922c-4.425-6.954-14.055-8.262-20.173-2.713l-15.818,14.347
	l-7.768-12.882l25.211-41.066C201.781,194.004,208.095,193.761,213.274,202.197z M162.702,257.658l4.82,7.993
	c4.331,7.182,14.138,8.611,20.341,2.985l15.855-14.38l18.439,28.976c4.518,7.101,14.412,8.278,20.47,2.436l13.751-13.26
	l44.194,71.986c-93.281,151.942-92.248,149.659-92.909,152.599H15.768L162.702,257.658z M402.591,346.704l-13.625,13.139
	l-18.406-28.923c-4.425-6.954-14.055-8.262-20.172-2.713l-15.818,14.347l-7.564-12.544l28.315-46.123
	c2.914-4.746,5.734-4.84,8.705,0L402.591,346.704z"/>
<path d="M386.472,179.239c27.642,0,52.442-17.494,61.714-43.531c1.39-3.902-0.647-8.192-4.55-9.581
	c-3.898-1.39-8.191,0.647-9.581,4.55c-7.147,20.075-26.27,33.562-47.582,33.562c-27.847,0-50.502-22.655-50.502-50.502
	s22.655-50.502,50.502-50.502c22.603,0,42.609,15.2,48.651,36.963c1.109,3.992,5.245,6.327,9.233,5.22
	c3.991-1.108,6.329-5.242,5.22-9.233c-7.838-28.232-33.788-47.951-63.106-47.951c-36.118,0-65.503,29.384-65.503,65.503
	S350.354,179.239,386.472,179.239z"/>
<g>
</g>
<g>
</g>
<g>
</g>
<g>
</g>
<g>
</g>
<g>
</g>
<g>
</g>
<g>
</g>
<g>
</g>
<g>
</g>
<g>
</g>
<g>
</g>
<g>
</g>
<g>
</g>
<g>
</g>
</svg>
