<?xml version="1.0" encoding="iso-8859-1"?>
<!-- Generator: Adobe Illustrator 19.0.0, SVG Export Plug-In . SVG Version: 6.00 Build 0)  -->
<svg version="1.1" id="Capa_1" xmlns="http://www.w3.org/2000/svg" xmlns:xlink="http://www.w3.org/1999/xlink" x="0px" y="0px"
	 viewBox="0 0 512.001 512.001" style="enable-background:new 0 0 512.001 512.001;" xml:space="preserve">
<g>
	
		<rect x="472.15" y="160.807" transform="matrix(-0.7071 0.7071 -0.7071 -0.7071 959.5693 -4.0161)" style="fill:#03AA6F;" width="16.933" height="71.837"/>
	
		<rect x="393.906" y="188.282" transform="matrix(-0.7071 0.7071 -0.7071 -0.7071 872.8785 31.9385)" style="fill:#03AA6F;" width="71.837" height="16.933"/>
	<path style="fill:#03AA6F;" d="M500.028,278.907l-44.813-44.813l-44.813,44.813l-11.972-11.972l50.799-50.799
		c3.302-3.302,8.67-3.302,11.972,0L512,266.935L500.028,278.907z"/>
	<path style="fill:#03AA6F;" d="M500.028,329.705l-44.813-44.813l-44.813,44.813l-11.972-11.972l50.799-50.799
		c3.302-3.302,8.67-3.302,11.972,0L512,317.734L500.028,329.705z"/>
</g>
<path style="fill:#824228;" d="M458.458,163.5c-3.166-1.312-6.807-0.584-9.228,1.837l-2.481,2.481v327.347h16.933V171.323
	C463.682,167.903,461.625,164.813,458.458,163.5z"/>
<g>
	
		<rect x="319.748" y="84.616" transform="matrix(-0.7071 0.7071 -0.7071 -0.7071 645.5281 -26.3168)" style="fill:#03AA6F;" width="16.933" height="71.837"/>
	
		<rect x="241.492" y="112.071" transform="matrix(-0.7071 0.7071 -0.7071 -0.7071 558.8024 9.6113)" style="fill:#03AA6F;" width="71.837" height="16.933"/>
	<path style="fill:#03AA6F;" d="M347.632,202.709l-44.813-44.813l-44.813,44.813l-11.972-11.972l50.799-50.799
		c3.302-3.302,8.67-3.302,11.972,0l50.799,50.799L347.632,202.709z"/>
	<path style="fill:#03AA6F;" d="M347.632,253.507l-44.813-44.813l-44.813,44.813l-11.972-11.972l50.799-50.799
		c3.302-3.302,8.67-3.302,11.972,0l50.799,50.799L347.632,253.507z"/>
	<path style="fill:#03AA6F;" d="M348.64,304.306l-44.813-44.813l-44.813,44.813l-11.972-11.972l50.799-50.799
		c3.302-3.302,8.67-3.302,11.972,0l50.799,50.799L348.64,304.306z"/>
</g>
<path style="fill:#824228;" d="M306.062,87.311c-3.166-1.312-6.807-0.593-9.228,1.829l-2.481,2.481v327.347h16.933V95.125
	C311.286,91.705,309.22,88.623,306.062,87.311z"/>
<g>
	
		<rect x="73.717" y="126.933" transform="matrix(-0.7071 0.7071 -0.7071 -0.7071 255.449 219.8919)" style="fill:#03AA6F;" width="16.933" height="71.837"/>
	
		<rect x="-4.525" y="154.39" transform="matrix(-0.7071 0.7071 -0.7071 -0.7071 168.7498 255.814)" style="fill:#03AA6F;" width="71.837" height="16.933"/>
	<path style="fill:#03AA6F;" d="M101.597,245.041l-44.813-44.813l-44.813,44.813L0,233.069l50.799-50.799
		c3.31-3.302,8.661-3.302,11.972,0l50.799,50.799L101.597,245.041z"/>
	<path style="fill:#03AA6F;" d="M101.597,295.84l-44.813-44.813L11.972,295.84L0,283.868l50.799-50.799
		c3.31-3.302,8.661-3.302,11.972,0l50.799,50.799L101.597,295.84z"/>
	<path style="fill:#03AA6F;" d="M102.613,346.638L57.8,301.825l-44.813,44.813L1.016,334.667l50.799-50.799
		c3.31-3.302,8.67-3.302,11.972,0l50.799,50.799L102.613,346.638z"/>
</g>
<path style="fill:#824228;" d="M60.027,129.635c-3.166-1.312-6.807-0.584-9.228,1.837l-2.481,2.481v376.029h16.933V137.458
	C65.251,134.037,63.194,130.947,60.027,129.635z"/>
<polygon style="fill:#AA5634;" points="175.823,501.515 175.823,340.652 421.35,340.652 497.548,501.515 395.95,501.515 "/>
<g>
	<polyline style="fill:#FFCB5A;" points="260.487,501.515 175.823,340.652 91.158,501.515 260.487,501.515 	"/>
	<path style="fill:#FFCB5A;" d="M218.155,65.493c0,30.395-24.637,55.032-55.032,55.032s-55.032-24.637-55.032-55.032
		c47.979,47.979,103.011-7.053,55.032-55.032C193.518,10.461,218.155,35.098,218.155,65.493z"/>
</g>
<rect x="362.085" y="493.074" width="16.933" height="16.933"/>
<rect x="332.468" y="358.582" transform="matrix(-0.8805 0.4741 -0.4741 -0.8805 840.7526 630.2127)" width="16.933" height="125.01"/>
<path d="M65.759,509.981v-199.69l36.346,36.346l11.972-11.972l-48.318-48.318v-26.856l36.346,36.346l11.972-11.972L65.759,235.55
	v-26.856l36.346,36.346l11.972-11.972l-48.318-48.318v-26.856l36.346,36.346l11.972-11.972l-50.799-50.799l-0.059,0.059
	c-3.133-3.302-8.356-3.446-11.658-0.313c-0.093,0.085-0.178,0.169-0.262,0.262L0.5,182.279l11.972,11.972l36.355-36.355v26.856
	L0.508,233.069l11.972,11.972l36.346-36.346v26.856L0.508,283.868L12.48,295.84l36.346-36.346v26.856L0.508,334.667l11.972,11.972
	l36.346-36.346v199.69H65.759z"/>
<path d="M500.028,228.108L512,216.136l-50.799-50.799l-0.059,0.059c-3.133-3.302-8.356-3.446-11.658-0.313
	c-0.093,0.085-0.178,0.169-0.262,0.262l-50.799,50.799l11.972,11.972l36.355-36.355v26.856l-48.318,48.318l11.972,11.972
	l36.346-36.346v26.856l-48.318,48.318l11.972,11.972l36.346-36.346v81.159l-17.78-37.481c-1.397-2.946-4.36-4.834-7.62-4.851
	H311.286v-64.226l36.346,36.346l11.972-11.972l-48.318-48.318v-26.856l36.346,36.346l11.972-11.972l-48.318-48.318v-26.856
	l36.346,36.346l11.972-11.972l-48.318-48.318v-26.856l36.346,36.346l11.972-11.972L308.805,89.14l-0.059,0.059
	c-3.133-3.302-8.356-3.446-11.658-0.313c-0.093,0.085-0.178,0.169-0.262,0.262l-50.799,50.799l11.972,11.972l36.355-36.355v26.856
	l-48.318,48.318l11.972,11.972l36.346-36.346v26.856l-48.318,48.318l11.972,11.972l36.346-36.346v26.856l-48.318,48.318
	l11.972,11.972l36.346-36.346v64.226h-118.53c-2.388,0.017-4.657,1.05-6.231,2.845c-0.5,0.499-0.923,1.067-1.261,1.693
	L83.665,497.587c-2.167,4.14-0.567,9.262,3.573,11.43c1.211,0.635,2.557,0.965,3.92,0.965h253.993v-16.933h-79.585l-75.724-143.93
	H415.99l68.18,143.93h-88.22v16.933h101.597c4.673-0.017,8.45-3.818,8.433-8.5c-0.008-1.245-0.279-2.472-0.813-3.59l-41.486-87.636
	V293.359l36.346,36.346L512,317.734l-48.318-48.318V242.56l36.346,36.346L512,266.935l-48.318-48.318v-26.856L500.028,228.108z
	 M167.356,493.048h-62.178l62.178-118.132V493.048z M246.467,493.048h-62.178V374.916L246.467,493.048z"/>
<path d="M144.311,75.441c-11.658-1.541-22.377-7.188-30.234-15.934c-3.31-3.302-8.67-3.302-11.972,0
	c-1.583,1.583-2.481,3.742-2.481,5.986c0,35.068,28.43,63.498,63.498,63.498s63.498-28.43,63.498-63.498
	s-28.43-63.498-63.498-63.498c-4.673,0-8.466,3.793-8.466,8.466c0,2.244,0.889,4.394,2.481,5.986
	c8.746,7.857,14.393,18.575,15.934,30.234c1.609,14.291-8.678,27.177-22.978,28.786c-1.93,0.22-3.878,0.22-5.808,0L144.311,75.441z
	 M177.575,79.945c14.3-15.375,16.696-38.37,5.867-56.361c23.147,11.21,32.824,39.056,21.615,62.203
	c-11.21,23.147-39.056,32.824-62.203,21.615c-9.423-4.563-17.035-12.166-21.606-21.589c6.739,3.632,14.164,5.833,21.793,6.477
	C155.808,93.449,168.44,88.936,177.575,79.945z"/>
<g>
</g>
<g>
</g>
<g>
</g>
<g>
</g>
<g>
</g>
<g>
</g>
<g>
</g>
<g>
</g>
<g>
</g>
<g>
</g>
<g>
</g>
<g>
</g>
<g>
</g>
<g>
</g>
<g>
</g>
</svg>
