<?xml version="1.0" standalone="no"?>
<!DOCTYPE svg PUBLIC "-//W3C//DTD SVG 20010904//EN"
 "http://www.w3.org/TR/2001/REC-SVG-20010904/DTD/svg10.dtd">
<svg version="1.0" xmlns="http://www.w3.org/2000/svg"
 width="2134.000000pt" height="2134.000000pt" viewBox="0 0 2134.000000 2134.000000"
 preserveAspectRatio="xMidYMid meet">
<metadata>
Created by potrace 1.14, written by Peter Selinger 2001-2017
</metadata>
<g transform="translate(0.000000,2134.000000) scale(0.100000,-0.100000)"
fill="#000000" stroke="none">
<path d="M10239 21336 c-2 -2 -65 -6 -139 -10 -74 -3 -160 -8 -190 -11 -30 -2
-113 -9 -185 -15 -162 -13 -202 -18 -495 -55 -153 -20 -178 -23 -210 -30 -13
-2 -42 -7 -65 -10 -22 -3 -67 -11 -100 -17 -33 -6 -69 -12 -80 -14 -50 -8
-211 -39 -310 -60 -38 -9 -79 -17 -90 -19 -55 -11 -221 -50 -305 -72 -52 -13
-102 -26 -110 -28 -129 -29 -728 -212 -805 -245 -11 -5 -65 -24 -120 -44 -353
-124 -695 -271 -1110 -477 -165 -82 -307 -153 -315 -159 -8 -5 -58 -33 -110
-61 -76 -41 -459 -268 -544 -322 -11 -7 -102 -67 -204 -135 -241 -162 -395
-272 -606 -434 -64 -49 -254 -202 -300 -241 -180 -153 -216 -184 -256 -221
-25 -22 -85 -77 -135 -121 -176 -156 -608 -596 -781 -795 -21 -25 -41 -47 -44
-50 -15 -15 -178 -208 -244 -290 -42 -52 -82 -102 -89 -110 -7 -8 -35 -44 -62
-80 -27 -36 -55 -72 -62 -80 -27 -33 -193 -261 -259 -355 -192 -276 -431 -657
-572 -915 -17 -30 -46 -84 -66 -120 -103 -185 -304 -601 -408 -840 -6 -14 -17
-38 -24 -55 -75 -174 -216 -544 -292 -770 -66 -195 -207 -673 -227 -770 -2
-11 -24 -104 -49 -207 -24 -103 -47 -202 -50 -220 -3 -18 -8 -44 -11 -58 -9
-41 -25 -123 -30 -155 -3 -16 -8 -43 -12 -60 -3 -16 -7 -39 -8 -50 -2 -11 -10
-58 -18 -105 -9 -47 -19 -105 -22 -130 -3 -25 -12 -88 -20 -140 -25 -175 -35
-251 -50 -405 -3 -33 -8 -76 -10 -95 -2 -19 -7 -73 -10 -120 -4 -47 -8 -105
-10 -130 -27 -318 -27 -1196 0 -1505 2 -22 6 -81 10 -132 3 -50 8 -102 10
-115 2 -13 6 -59 10 -102 4 -43 8 -86 10 -95 2 -9 6 -47 9 -83 4 -37 8 -75 10
-85 4 -20 12 -83 22 -158 3 -27 8 -59 10 -70 2 -11 7 -40 10 -65 3 -25 8 -54
10 -65 2 -11 6 -33 9 -50 10 -59 65 -360 70 -385 4 -14 8 -36 11 -50 35 -187
177 -733 255 -980 108 -339 280 -805 381 -1030 12 -25 35 -79 53 -120 65 -149
260 -550 336 -687 16 -29 43 -78 59 -108 71 -131 95 -173 146 -258 30 -49 54
-93 54 -98 0 -5 5 -9 10 -9 6 0 10 -5 10 -10 0 -14 272 -445 312 -495 5 -5 54
-75 110 -155 149 -213 406 -549 504 -660 13 -14 68 -79 125 -145 56 -66 104
-122 108 -125 3 -3 42 -45 85 -95 99 -112 613 -626 720 -720 44 -39 87 -77 96
-85 9 -8 32 -28 51 -45 19 -16 66 -57 104 -91 39 -33 142 -118 230 -189 88
-70 169 -135 180 -144 11 -9 45 -34 75 -56 30 -21 57 -42 60 -45 4 -5 162
-120 217 -158 10 -7 47 -33 83 -58 288 -202 703 -457 1040 -638 111 -60 490
-248 575 -286 28 -12 74 -33 104 -47 250 -116 679 -282 1026 -397 295 -98 824
-243 1025 -281 14 -3 88 -18 165 -34 77 -16 156 -32 175 -35 19 -3 46 -8 60
-10 77 -15 261 -46 295 -50 22 -2 72 -9 110 -15 39 -5 93 -13 120 -16 28 -4
57 -8 65 -10 8 -2 51 -7 95 -11 44 -3 88 -8 98 -10 10 -2 55 -6 100 -10 45 -3
90 -8 99 -9 9 -2 67 -7 130 -10 62 -4 129 -9 148 -11 225 -22 976 -22 1300 1
30 2 98 7 152 10 53 3 111 8 130 11 18 2 65 6 103 9 39 3 88 8 110 11 22 2 56
6 75 8 19 2 55 7 80 10 47 7 86 12 160 21 45 6 58 8 140 20 64 9 90 14 220 36
63 11 129 22 145 25 64 10 323 66 488 104 801 185 1659 501 2401 883 217 113
393 209 501 274 11 7 27 16 35 20 18 9 245 147 325 198 107 68 257 169 373
250 63 44 124 87 135 95 66 44 404 303 500 383 62 50 121 99 132 108 324 267
775 703 1065 1029 36 40 76 85 90 100 167 180 562 684 731 930 24 36 46 67 49
70 11 11 182 274 264 405 47 77 91 147 96 155 225 362 605 1126 750 1510 7 19
21 53 31 75 105 242 345 993 424 1330 1 6 5 24 9 40 28 116 38 163 42 180 2
11 11 52 19 90 26 119 74 368 80 415 3 25 8 52 11 61 3 10 6 30 9 45 5 36 15
101 21 134 2 14 6 43 9 65 7 52 15 114 20 145 2 14 6 50 10 80 3 30 8 71 10
90 3 19 7 55 9 80 2 25 7 74 11 110 11 112 14 142 20 245 4 55 8 116 10 135 2
19 7 123 11 230 17 432 4 979 -31 1350 -2 25 -7 72 -10 105 -3 33 -7 76 -10
95 -2 19 -7 64 -11 100 -3 36 -8 73 -9 82 -2 9 -6 43 -10 75 -6 59 -9 83 -25
188 -5 33 -12 78 -15 100 -3 22 -8 51 -11 65 -7 38 -11 60 -19 115 -5 28 -9
52 -10 55 -1 3 -5 25 -9 50 -5 25 -10 54 -13 65 -2 11 -8 43 -13 70 -11 52
-14 68 -31 150 -6 28 -15 68 -19 90 -5 22 -21 90 -35 150 -15 61 -28 117 -30
125 -3 12 -52 195 -85 315 -23 87 -118 389 -165 525 -47 140 -71 205 -137 380
-35 90 -154 381 -182 442 -65 145 -76 169 -76 173 0 8 -226 462 -278 560 -64
120 -121 223 -144 260 -10 17 -21 37 -25 45 -24 51 -224 377 -329 535 -99 151
-221 331 -241 355 -7 8 -67 89 -134 180 -155 210 -383 492 -524 650 -18 19
-74 82 -125 140 -104 116 -559 574 -685 689 -136 124 -147 134 -255 226 -140
120 -202 172 -280 234 -36 28 -72 57 -80 64 -8 7 -33 26 -55 42 -22 17 -48 37
-58 47 -44 38 -416 304 -582 415 -198 131 -242 159 -360 230 -44 26 -88 52
-97 58 -895 541 -1983 979 -3027 1220 -130 30 -441 95 -479 100 -26 3 -59 9
-112 20 -41 8 -410 63 -470 70 -30 3 -66 8 -80 10 -14 2 -54 6 -90 10 -36 4
-76 8 -90 10 -14 2 -59 6 -100 10 -41 3 -91 7 -110 9 -19 3 -87 8 -150 12 -63
3 -131 8 -150 11 -43 4 -1016 13 -1021 9z m3016 -3020 c80 -9 96 -14 170 -50
121 -60 223 -176 267 -306 23 -65 23 -66 23 -780 0 -393 -3 -736 -7 -761 -10
-69 -66 -174 -124 -235 -56 -57 -167 -134 -194 -134 -9 0 -20 -3 -24 -7 -3 -4
-12 -8 -19 -9 -177 -37 -278 -26 -411 44 -128 67 -228 194 -259 328 -21 89
-20 1411 1 1504 49 217 230 384 440 406 31 4 59 8 60 10 2 1 9 1 15 -1 7 -2
35 -6 62 -9z m-4220 -1797 c101 -27 154 -68 398 -309 132 -129 242 -237 247
-240 25 -17 94 -135 111 -192 22 -71 30 -206 17 -283 -29 -174 -151 -312 -335
-377 -83 -29 -234 -32 -328 -6 -138 38 -171 65 -440 353 -66 71 -142 151 -169
179 -119 124 -168 244 -161 391 4 91 10 115 53 203 75 158 233 271 412 295 40
5 151 -3 195 -14z m8565 6 c114 -17 259 -116 334 -229 102 -154 113 -352 29
-524 -37 -75 -98 -139 -588 -617 -71 -70 -213 -209 -315 -310 -198 -196 -240
-226 -347 -246 -32 -6 -87 -9 -123 -5 -102 8 -129 16 -212 57 -213 104 -323
346 -270 589 26 117 67 183 197 316 44 45 202 207 350 359 501 515 516 530
580 563 52 25 111 43 190 55 27 4 120 0 175 -8z m-4125 -1558 c22 -3 69 -9
105 -12 36 -4 74 -9 85 -11 11 -2 47 -9 80 -14 55 -9 217 -43 258 -55 9 -3 25
-7 35 -9 213 -52 580 -209 787 -336 39 -24 79 -48 90 -54 36 -20 139 -91 159
-108 11 -10 23 -18 27 -18 4 0 25 -15 47 -32 22 -18 68 -55 102 -83 183 -148
383 -356 524 -545 31 -41 65 -86 76 -100 11 -14 20 -30 20 -36 0 -6 6 -17 14
-23 35 -29 193 -312 276 -496 84 -183 173 -454 206 -620 2 -11 9 -44 15 -74 6
-30 12 -64 14 -75 6 -45 17 -122 20 -146 20 -135 25 -472 11 -670 -4 -63 -9
-117 -11 -120 -2 -3 -6 -30 -9 -60 -3 -30 -8 -66 -11 -80 -2 -13 -7 -42 -11
-65 -11 -76 -73 -320 -107 -425 -69 -209 -163 -424 -254 -578 -24 -41 -43 -76
-43 -78 0 -9 -131 -207 -186 -281 l-55 -74 39 -97 c89 -218 159 -474 187 -687
3 -22 7 -53 10 -70 31 -205 25 -658 -11 -871 -5 -35 -32 -181 -38 -209 -5 -27
-40 -154 -65 -240 -44 -154 -169 -442 -253 -585 -123 -209 -200 -320 -342
-490 -367 -440 -907 -790 -1471 -953 -144 -42 -331 -82 -430 -93 -54 -6 -139
-14 -205 -20 -36 -3 -1066 -6 -2290 -6 -2052 -1 -2228 0 -2257 16 -21 10 -35
27 -40 47 -5 16 -8 232 -8 478 0 413 2 450 18 475 10 15 28 31 40 35 12 5
1012 8 2222 8 1932 1 2297 3 2373 18 9 1 37 6 62 9 74 10 101 16 197 41 236
62 453 166 648 311 205 152 398 357 530 564 121 189 227 453 260 645 3 17 10
55 15 85 23 126 31 370 17 530 -23 277 -112 550 -261 804 -150 254 -408 518
-674 689 -186 120 -476 232 -677 261 -64 10 -98 16 -130 22 -16 4 -317 8 -667
9 -568 2 -641 4 -663 19 -34 22 -42 41 -49 116 -4 36 -9 80 -12 98 -10 75 -14
104 -29 242 -9 80 -23 179 -32 220 -8 41 -17 86 -19 100 -38 217 -192 591
-334 810 -53 80 -132 192 -150 210 -3 3 -29 34 -59 70 -164 195 -461 446 -681
574 -75 44 -253 133 -321 161 -176 73 -427 142 -584 161 -27 4 -52 8 -55 9
-31 18 -567 28 -680 12 -30 -4 -75 -10 -100 -13 -25 -3 -79 -12 -120 -20 -41
-8 -84 -16 -95 -18 -159 -31 -428 -130 -601 -221 -130 -68 -391 -240 -434
-285 -3 -3 -34 -29 -70 -59 -219 -183 -443 -455 -586 -711 -163 -292 -261
-601 -308 -970 -40 -319 -50 -388 -57 -407 -12 -32 -50 -53 -105 -58 -27 -3
-62 -7 -79 -10 -16 -2 -52 -7 -80 -10 -27 -3 -61 -8 -75 -10 -29 -5 -98 -14
-155 -19 -167 -17 -388 -74 -535 -138 -438 -192 -784 -523 -991 -948 -34 -69
-71 -136 -83 -148 -47 -53 -42 -52 -534 -52 -253 0 -473 3 -490 6 -21 4 -35
16 -46 37 -13 28 -13 35 1 67 8 19 19 53 24 75 26 129 164 447 280 648 37 64
170 262 204 306 285 356 569 611 898 808 152 91 293 159 472 231 66 26 270 89
316 97 54 10 60 17 76 91 8 38 16 74 17 79 2 6 6 24 10 40 4 17 12 41 17 55 5
14 11 34 13 45 9 40 58 183 108 310 126 319 298 614 527 900 100 125 349 383
461 476 36 29 67 56 70 60 3 3 53 42 112 87 491 372 1012 599 1598 696 164 27
189 30 370 42 187 13 581 6 680 -11 14 -2 50 -7 80 -10 53 -6 75 -9 140 -20
17 -3 45 -7 63 -10 17 -3 39 -8 47 -10 8 -2 31 -7 50 -10 19 -3 53 -10 75 -16
22 -5 51 -12 65 -15 14 -3 54 -14 90 -24 36 -11 67 -19 70 -20 3 0 43 -13 90
-30 47 -17 90 -32 95 -34 42 -13 222 -89 287 -122 75 -38 80 -37 120 12 22 27
209 209 268 260 75 66 147 124 218 175 37 26 72 52 77 56 35 30 244 152 352
206 200 100 470 199 633 233 14 3 45 10 70 15 89 21 172 36 245 44 28 4 61 8
75 11 14 2 70 7 125 10 55 4 101 8 103 9 5 4 416 -3 457 -8z m5898 -2736 c110
-26 236 -113 315 -216 34 -44 78 -143 90 -199 10 -48 9 -180 -1 -221 -44 -172
-172 -310 -357 -382 -41 -17 -105 -18 -760 -20 -767 -3 -760 -3 -867 48 -52
25 -161 128 -210 200 -75 109 -100 291 -58 429 62 207 225 350 425 372 14 2
329 3 700 2 476 -1 689 -4 723 -13z m-10136 -1724 c11 -3 43 -9 70 -13 26 -5
50 -8 53 -9 304 -64 582 -216 811 -445 203 -202 335 -420 413 -680 26 -87 28
-98 51 -235 13 -77 14 -391 2 -475 -52 -362 -205 -668 -467 -930 -102 -102
-132 -128 -241 -203 -217 -150 -443 -235 -729 -273 -71 -10 -6989 -12 -7055
-2 -83 12 -97 16 -170 53 -141 72 -268 230 -290 361 -27 167 25 323 150 450
83 83 157 128 255 153 68 17 222 18 3533 18 3231 1 3466 2 3527 18 118 31 197
78 292 177 107 111 159 233 163 390 5 149 -28 255 -115 374 -109 146 -268 231
-450 239 -75 3 -106 0 -198 -19 -67 -14 -169 -75 -247 -149 -43 -40 -146 -96
-218 -119 -34 -11 -98 -21 -142 -22 -220 -8 -392 87 -478 264 -46 95 -56 140
-55 259 2 195 63 307 259 472 201 170 488 301 734 335 28 3 73 10 100 14 54 8
407 5 442 -3z m8038 -2202 c96 -32 141 -69 359 -289 248 -250 298 -307 330
-380 43 -96 47 -110 53 -187 14 -189 -65 -356 -216 -458 -197 -133 -417 -133
-621 2 -44 29 -458 441 -505 502 -74 97 -106 205 -101 339 2 58 11 112 24 148
67 188 246 326 447 345 33 3 61 6 62 7 7 6 125 -14 168 -29z m-11215 -1905
c211 -37 302 -61 439 -119 252 -106 506 -312 689 -559 165 -223 268 -485 300
-767 13 -119 6 -408 -13 -499 -37 -179 -76 -298 -141 -430 -175 -353 -495
-654 -854 -803 -74 -31 -221 -75 -290 -87 -19 -3 -46 -8 -59 -11 -125 -24
-394 -24 -546 0 -278 44 -584 191 -795 380 -188 169 -245 274 -248 452 -2 191
73 340 224 443 82 57 155 79 273 84 144 7 285 -48 405 -155 144 -128 269 -179
423 -174 154 6 257 47 382 153 137 116 213 279 212 453 0 163 -55 290 -175
411 -83 83 -189 144 -292 169 -37 9 -527 13 -1954 14 -1048 2 -1916 5 -1929 9
-119 29 -210 84 -298 180 -110 120 -151 250 -128 414 25 188 180 360 385 429
l65 22 1955 -3 c1075 -2 1962 -4 1970 -6z"/>
<path d="M13068 13915 c-2 -1 -39 -5 -83 -8 -44 -4 -89 -8 -100 -10 -11 -3
-42 -8 -70 -11 -57 -8 -223 -49 -293 -72 -250 -82 -502 -224 -727 -409 -154
-127 -152 -101 -22 -235 62 -64 132 -140 157 -169 25 -29 56 -65 68 -80 13
-14 65 -80 114 -146 78 -103 113 -154 217 -315 51 -81 157 -287 209 -411 58
-135 135 -370 168 -506 14 -62 20 -73 38 -73 175 -3 432 -10 471 -14 80 -8
151 -16 171 -20 11 -2 39 -7 64 -10 38 -5 82 -14 256 -51 63 -14 243 -72 344
-112 343 -135 681 -353 957 -619 31 -30 60 -54 64 -54 14 0 141 240 174 330
32 87 77 225 81 250 3 14 11 50 19 80 47 191 63 519 35 740 -36 295 -144 607
-290 845 -126 206 -347 454 -540 607 -312 248 -666 402 -1036 453 -23 3 -59 8
-80 11 -39 6 -361 13 -366 9z"/>
</g>
</svg>
