<?xml version="1.0" encoding="iso-8859-1"?>
<!-- Generator: Adobe Illustrator 19.0.0, SVG Export Plug-In . SVG Version: 6.00 Build 0)  -->
<svg version="1.1" id="Capa_1" xmlns="http://www.w3.org/2000/svg" xmlns:xlink="http://www.w3.org/1999/xlink" x="0px" y="0px"
	 viewBox="0 0 512 512" style="enable-background:new 0 0 512 512;" xml:space="preserve">
<circle style="fill:#5D5360;" cx="256" cy="256" r="248.5"/>
<path style="fill:#4B3F4E;" d="M337.497,423.003c-137.243,0-248.5-111.257-248.5-248.5c0-47.74,13.489-92.316,36.824-130.178
	C54.837,88.073,7.5,166.497,7.5,256c0,137.242,111.257,248.5,248.5,248.5c89.503,0,167.928-47.337,211.676-118.322
	C429.814,409.513,385.237,423.003,337.497,423.003z"/>
<path style="fill:#FFDC64;" d="M504.5,256C504.5,118.757,393.243,7.5,256,7.5v497C393.243,504.5,504.5,393.242,504.5,256z"/>
<path style="fill:#FFC850;" d="M337.498,423.003c-28.557,0-55.96-4.878-81.498-13.744V504.5
	c89.503,0,167.928-47.337,211.676-118.322C429.814,409.513,385.237,423.003,337.498,423.003z"/>
<circle style="fill:#5D5360;" cx="203.9" cy="380.25" r="20.04"/>
<circle style="fill:#FFF082;" cx="304.1" cy="143.77" r="16.03"/>
<circle style="fill:#6F6571;" cx="155.8" cy="147.78" r="36.07"/>
<circle style="fill:#FFF082;" cx="368.23" cy="336.16" r="32.06"/>
<circle style="fill:#5D5360;" cx="95.68" cy="280.05" r="16.03"/>
<path d="M203.895,352.71c-15.186,0-27.54,12.354-27.54,27.54s12.354,27.54,27.54,27.54s27.541-12.354,27.541-27.54
	S219.081,352.71,203.895,352.71z M203.895,392.79c-6.915,0-12.54-5.625-12.54-12.54s5.625-12.54,12.54-12.54
	s12.541,5.625,12.541,12.54S210.81,392.79,203.895,392.79z"/>
<path d="M304.097,120.242c-12.976,0-23.532,10.557-23.532,23.533s10.557,23.532,23.532,23.532s23.532-10.557,23.532-23.532
	C327.629,130.798,317.072,120.242,304.097,120.242z M304.097,152.307c-4.705,0-8.532-3.828-8.532-8.532
	c0-4.705,3.828-8.533,8.532-8.533s8.532,3.828,8.532,8.533C312.629,148.479,308.801,152.307,304.097,152.307z"/>
<path d="M95.677,256.517c-12.976,0-23.532,10.557-23.532,23.532s10.557,23.532,23.532,23.532s23.532-10.557,23.532-23.532
	S108.653,256.517,95.677,256.517z M95.677,288.581c-4.705,0-8.532-3.827-8.532-8.532s3.828-8.532,8.532-8.532
	s8.532,3.827,8.532,8.532S100.382,288.581,95.677,288.581z"/>
<path d="M398.348,320.58c-4,1.073-6.374,5.186-5.301,9.187c2.271,8.469-0.164,17.574-6.354,23.765
	c-4.64,4.64-10.809,7.194-17.37,7.194c-6.562,0-12.73-2.555-17.37-7.195c-4.64-4.639-7.195-10.808-7.195-17.369
	s2.555-12.73,7.195-17.369c6.183-6.184,15.278-8.619,23.736-6.361c4.002,1.065,8.112-1.309,9.181-5.312
	c1.069-4.002-1.309-8.112-5.311-9.181c-13.616-3.635-28.257,0.29-38.213,10.246c-7.473,7.473-11.588,17.408-11.588,27.977
	s4.116,20.504,11.588,27.976c7.473,7.474,17.408,11.589,27.977,11.589c10.568,0,20.503-4.115,27.976-11.588
	c9.968-9.968,13.89-24.627,10.235-38.256C406.462,321.881,402.35,319.507,398.348,320.58z"/>
<path d="M437.02,74.98C388.667,26.629,324.38,0,256,0S123.333,26.629,74.98,74.98C26.629,123.333,0,187.62,0,256
	s26.629,132.668,74.98,181.02C123.333,485.371,187.62,512,256,512s132.667-26.629,181.02-74.98C485.371,388.668,512,324.38,512,256
	S485.371,123.333,437.02,74.98z M426.413,426.413c-43.746,43.746-101.351,68.59-162.913,70.46V119.726c0-4.142-3.358-7.5-7.5-7.5
	s-7.5,3.358-7.5,7.5v377.147c-61.562-1.87-119.167-26.714-162.913-70.46C40.068,380.894,15,320.374,15,256
	S40.068,131.106,85.587,85.587c43.746-43.746,101.351-68.59,162.913-70.46v69.867c0,4.142,3.358,7.5,7.5,7.5s7.5-3.358,7.5-7.5
	V15.127c61.562,1.87,119.166,26.714,162.913,70.46C471.932,131.106,497,191.626,497,256S471.932,380.894,426.413,426.413z"/>
<path d="M223.936,256.517h-8.532v-8.533c0-4.142-3.358-7.5-7.5-7.5s-7.5,3.358-7.5,7.5v8.533h-8.532c-4.142,0-7.5,3.357-7.5,7.5
	s3.358,7.5,7.5,7.5h8.532v8.532c0,4.143,3.358,7.5,7.5,7.5s7.5-3.357,7.5-7.5v-8.532h8.532c4.142,0,7.5-3.357,7.5-7.5
	S228.078,256.517,223.936,256.517z"/>
<path d="M426.929,223.936l2.713-2.713c2.929-2.929,2.929-7.678,0-10.606c-2.929-2.929-7.678-2.929-10.606,0l-2.713,2.713
	l-2.713-2.713c-2.929-2.929-7.678-2.929-10.606,0c-2.929,2.929-2.929,7.678,0,10.606l2.713,2.713l-2.713,2.713
	c-2.929,2.929-2.929,7.678,0,10.606c1.464,1.464,3.384,2.197,5.303,2.197s3.839-0.732,5.303-2.197l2.713-2.713l2.713,2.713
	c1.464,1.464,3.384,2.197,5.303,2.197s3.839-0.732,5.303-2.197c2.929-2.929,2.929-7.678,0-10.606L426.929,223.936z"/>
<path d="M197.881,136.46c-1.073-4.001-5.188-6.371-9.187-5.301c-4.001,1.073-6.374,5.187-5.301,9.187
	c2.642,9.849-0.19,20.44-7.39,27.64c-11.141,11.14-29.268,11.14-40.408,0c-11.14-11.141-11.14-29.268,0-40.408
	c7.191-7.19,17.771-10.025,27.608-7.398c4.002,1.07,8.112-1.31,9.181-5.311c1.069-4.002-1.309-8.112-5.311-9.181
	c-14.995-4.003-31.12,0.32-42.085,11.284c-16.989,16.989-16.989,44.632,0,61.621c8.495,8.494,19.652,12.742,30.811,12.742
	c11.158,0,22.316-4.248,30.811-12.742C197.587,167.614,201.907,151.47,197.881,136.46z"/>
<g>
</g>
<g>
</g>
<g>
</g>
<g>
</g>
<g>
</g>
<g>
</g>
<g>
</g>
<g>
</g>
<g>
</g>
<g>
</g>
<g>
</g>
<g>
</g>
<g>
</g>
<g>
</g>
<g>
</g>
</svg>
