<?xml version="1.0" encoding="iso-8859-1"?>
<!-- Generator: Adobe Illustrator 19.0.0, SVG Export Plug-In . SVG Version: 6.00 Build 0)  -->
<svg version="1.1" id="Capa_1" xmlns="http://www.w3.org/2000/svg" xmlns:xlink="http://www.w3.org/1999/xlink" x="0px" y="0px"
	 viewBox="0 0 512 512" style="enable-background:new 0 0 512 512;" xml:space="preserve">
<circle style="fill:#5D5360;" cx="256" cy="256" r="248.5"/>
<circle style="fill:#6F6571;" cx="155.8" cy="147.78" r="36.07"/>
<path style="fill:#4B3F4E;" d="M337.497,423.003c-137.243,0-248.5-111.257-248.5-248.5c0-47.74,13.489-92.316,36.824-130.178
	C54.837,88.073,7.5,166.497,7.5,256c0,137.242,111.257,248.5,248.5,248.5c89.503,0,167.928-47.337,211.676-118.322
	C429.814,409.513,385.237,423.003,337.497,423.003z"/>
<path style="fill:#FFDC64;" d="M256,504.5c-66.408,0-120.242-111.257-120.242-248.5C135.758,118.758,189.592,7.5,256,7.5
	C118.757,7.5,7.5,118.758,7.5,256C7.5,393.243,118.757,504.5,256,504.5z"/>
<path style="fill:#FFC850;" d="M140.639,326.078c-32.352-41.955-51.641-94.498-51.641-151.575c0-47.74,13.488-92.316,36.824-130.178
	h-0.001C54.836,88.073,7.5,166.497,7.5,256c0,137.243,111.257,248.5,248.5,248.5C201.372,504.5,155.282,429.186,140.639,326.078z"/>
<g>
	<circle style="fill:#6F6571;" cx="203.9" cy="380.25" r="20.04"/>
	<circle style="fill:#6F6571;" cx="304.1" cy="143.77" r="16.03"/>
	<circle style="fill:#6F6571;" cx="368.23" cy="336.16" r="32.06"/>
</g>
<circle style="fill:#FFDC64;" cx="95.68" cy="280.05" r="16.03"/>
<path style="fill:#FFF082;" d="M141.375,180.813c3.82-24.896,9.502-48.063,16.682-68.875c-0.761-0.048-1.485-0.228-2.258-0.228
	c-19.923,0-36.073,16.15-36.073,36.073C119.726,162.569,128.642,175.243,141.375,180.813z"/>
<path d="M203.896,352.709c-15.187,0-27.541,12.354-27.541,27.541s12.354,27.541,27.541,27.541c15.186,0,27.54-12.354,27.54-27.541
	S219.081,352.709,203.896,352.709z M203.896,392.791c-6.915,0-12.541-5.625-12.541-12.541s5.626-12.541,12.541-12.541
	s12.54,5.625,12.54,12.541S210.811,392.791,203.896,392.791z"/>
<path d="M304.097,120.242c-12.976,0-23.532,10.557-23.532,23.533s10.557,23.532,23.532,23.532s23.532-10.557,23.532-23.532
	C327.629,130.798,317.072,120.242,304.097,120.242z M304.097,152.307c-4.705,0-8.532-3.828-8.532-8.532
	c0-4.705,3.827-8.533,8.532-8.533s8.532,3.828,8.532,8.533C312.629,148.479,308.802,152.307,304.097,152.307z"/>
<path d="M72.146,280.048c0,12.976,10.557,23.532,23.532,23.532s23.532-10.557,23.532-23.532s-10.557-23.532-23.532-23.532
	S72.146,267.073,72.146,280.048z M104.21,280.048c0,4.705-3.827,8.532-8.532,8.532s-8.532-3.828-8.532-8.532
	s3.827-8.532,8.532-8.532S104.21,275.344,104.21,280.048z"/>
<path d="M398.347,320.581c-4.001,1.073-6.374,5.187-5.301,9.187c2.271,8.467-0.162,17.573-6.353,23.763
	c-4.641,4.64-10.81,7.195-17.37,7.195c-6.562,0-12.73-2.555-17.37-7.195s-7.194-10.809-7.194-17.37c0-6.562,2.555-12.73,7.195-17.37
	c6.182-6.183,15.278-8.619,23.736-6.361c4.003,1.07,8.112-1.31,9.181-5.312s-1.31-8.112-5.312-9.181
	c-13.615-3.636-28.257,0.292-38.212,10.247c-7.474,7.473-11.589,17.408-11.589,27.977c0,10.568,4.115,20.503,11.588,27.976
	s17.408,11.588,27.977,11.588c10.567,0,20.503-4.116,27.976-11.588c9.97-9.969,13.892-24.628,10.235-38.257
	C406.46,321.88,402.346,319.509,398.347,320.581z"/>
<path d="M437.02,74.98C388.668,26.629,324.38,0,256,0S123.332,26.629,74.98,74.98C26.629,123.333,0,187.62,0,256
	s26.629,132.667,74.98,181.02C123.332,485.371,187.62,512,256,512s132.668-26.629,181.02-74.98C485.371,388.667,512,324.38,512,256
	S485.371,123.333,437.02,74.98z M426.413,426.413C380.894,471.932,320.374,497,256,497c-29.085,0-56.883-24.345-78.273-68.551
	C155.499,382.512,143.258,321.268,143.258,256c0-22.265,1.48-44.279,4.322-65.444c2.713,0.517,5.466,0.778,8.219,0.778
	c11.158,0,22.315-4.248,30.811-12.742c10.979-10.979,15.297-27.123,11.271-42.132c-1.072-4.001-5.181-6.371-9.188-5.301
	c-4,1.073-6.374,5.187-5.301,9.187c2.642,9.849-0.19,20.44-7.391,27.64c-7.096,7.097-17.026,9.665-26.181,7.72
	c4.63-27.565,11.63-53.375,20.762-75.995c1.55-3.841-0.307-8.212-4.147-9.762c-3.843-1.551-8.211,0.306-9.763,4.147
	c-1.35,3.343-2.648,6.759-3.908,10.229c-10.496,0.716-20.263,5.132-27.778,12.647c-16.988,16.989-16.988,44.632,0.001,61.622
	c2.525,2.525,5.29,4.665,8.215,6.44c-3.253,22.918-4.946,46.815-4.946,70.967c0,67.485,12.773,131.049,35.967,178.983
	c11.894,24.581,25.888,43.687,41.249,56.725c-45.093-9.571-86.522-31.931-119.887-65.296C40.068,380.894,15,320.374,15,256
	S40.068,131.106,85.587,85.587c33.417-33.417,74.924-55.795,120.101-65.341c-12.445,10.506-24.017,24.943-34.234,42.968
	c-2.043,3.604-0.777,8.181,2.826,10.223c1.168,0.663,2.438,0.977,3.691,0.977c2.612,0,5.151-1.368,6.531-3.803
	C204.83,34.75,230.222,15,256,15c64.374,0,124.894,25.068,170.413,70.587S497,191.626,497,256S471.932,380.894,426.413,426.413z
	 M135.595,167.986c-11.141-11.141-11.141-29.268-0.001-40.408c3.346-3.346,7.373-5.756,11.767-7.108
	c-4.637,15.09-8.474,31.126-11.464,47.802C135.797,168.176,135.693,168.085,135.595,167.986z"/>
<path d="M223.936,256.516h-8.532v-8.532c0-4.142-3.357-7.5-7.5-7.5s-7.5,3.358-7.5,7.5v8.532h-8.532c-4.143,0-7.5,3.358-7.5,7.5
	s3.357,7.5,7.5,7.5h8.532v8.532c0,4.142,3.357,7.5,7.5,7.5s7.5-3.358,7.5-7.5v-8.532h8.532c4.143,0,7.5-3.358,7.5-7.5
	S228.078,256.516,223.936,256.516z"/>
<path d="M426.93,223.936l2.713-2.713c2.929-2.929,2.929-7.678,0-10.606c-2.93-2.929-7.678-2.929-10.607,0l-2.712,2.712l-2.712-2.712
	c-2.93-2.929-7.678-2.929-10.607,0s-2.929,7.678,0,10.606l2.713,2.713l-2.713,2.713c-2.929,2.929-2.929,7.678,0,10.606
	c1.465,1.464,3.385,2.197,5.304,2.197s3.839-0.732,5.304-2.197l2.712-2.712l2.712,2.712c1.465,1.464,3.385,2.197,5.304,2.197
	s3.839-0.732,5.304-2.197c2.929-2.929,2.929-7.678,0-10.606L426.93,223.936z"/>
<g>
</g>
<g>
</g>
<g>
</g>
<g>
</g>
<g>
</g>
<g>
</g>
<g>
</g>
<g>
</g>
<g>
</g>
<g>
</g>
<g>
</g>
<g>
</g>
<g>
</g>
<g>
</g>
<g>
</g>
</svg>
