<?xml version="1.0" encoding="iso-8859-1"?>
<!-- Generator: Adobe Illustrator 19.0.0, SVG Export Plug-In . SVG Version: 6.00 Build 0)  -->
<svg version="1.1" id="Capa_1" xmlns="http://www.w3.org/2000/svg" xmlns:xlink="http://www.w3.org/1999/xlink" x="0px" y="0px"
	 viewBox="0 0 512 512" style="enable-background:new 0 0 512 512;" xml:space="preserve">
<circle style="fill:#FFDC64;" cx="256" cy="256" r="248.5"/>
<circle style="fill:#FFF082;" cx="155.8" cy="147.78" r="36.07"/>
<path style="fill:#FFC850;" d="M337.497,423.003c-137.243,0-248.5-111.257-248.5-248.5c0-47.74,13.489-92.316,36.824-130.178
	C54.837,88.073,7.5,166.497,7.5,256c0,137.242,111.257,248.5,248.5,248.5c89.503,0,167.928-47.337,211.676-118.322
	C429.814,409.513,385.237,423.003,337.497,423.003z"/>
<path style="fill:#5D5360;" d="M256,504.5c-66.408,0-120.242-111.257-120.242-248.5C135.758,118.758,189.592,7.5,256,7.5
	C118.757,7.5,7.5,118.758,7.5,256C7.5,393.243,118.757,504.5,256,504.5z"/>
<path style="fill:#4B3F4E;" d="M140.639,326.078c-32.352-41.955-51.641-94.498-51.641-151.575c0-47.74,13.488-92.316,36.824-130.178
	h-0.001C54.836,88.073,7.5,166.497,7.5,256c0,137.243,111.257,248.5,248.5,248.5C201.372,504.5,155.282,429.186,140.639,326.078z"/>
<circle style="fill:#FFDC64;" cx="203.9" cy="380.25" r="20.04"/>
<g>
	<circle style="fill:#FFF082;" cx="304.1" cy="143.77" r="16.03"/>
	<circle style="fill:#FFF082;" cx="368.23" cy="336.16" r="32.06"/>
</g>
<circle style="fill:#5D5360;" cx="95.677" cy="280.05" r="16.03"/>
<path style="fill:#6F6571;" d="M141.375,180.813c3.82-24.896,9.502-48.063,16.682-68.875c-0.761-0.048-1.485-0.228-2.258-0.228
	c-19.923,0-36.073,16.15-36.073,36.073C119.726,162.569,128.642,175.243,141.375,180.813z"/>
<path d="M203.895,352.71c-15.186,0-27.54,12.354-27.54,27.54c0,15.186,12.354,27.54,27.54,27.54s27.541-12.354,27.541-27.54
	S219.081,352.71,203.895,352.71z M203.895,392.79c-6.915,0-12.54-5.625-12.54-12.54s5.625-12.54,12.54-12.54
	s12.541,5.625,12.541,12.54S210.81,392.79,203.895,392.79z"/>
<path d="M304.097,120.242c-12.976,0-23.532,10.557-23.532,23.533c0,12.976,10.557,23.532,23.532,23.532
	c12.975,0,23.532-10.557,23.532-23.532C327.629,130.798,317.072,120.242,304.097,120.242z M304.097,152.307
	c-4.705,0-8.532-3.828-8.532-8.532c0-4.705,3.828-8.533,8.532-8.533c4.704,0,8.532,3.828,8.532,8.533
	C312.629,148.479,308.801,152.307,304.097,152.307z"/>
<path d="M72.145,280.049c0,12.976,10.557,23.532,23.532,23.532s23.532-10.557,23.532-23.532s-10.557-23.532-23.532-23.532
	S72.145,267.073,72.145,280.049z M104.209,280.049c0,4.705-3.828,8.532-8.532,8.532s-8.532-3.827-8.532-8.532
	s3.828-8.532,8.532-8.532S104.209,275.344,104.209,280.049z"/>
<path d="M398.348,320.58c-4,1.073-6.374,5.186-5.301,9.187c2.271,8.469-0.164,17.574-6.354,23.765
	c-4.64,4.64-10.809,7.194-17.37,7.194c-6.562,0-12.73-2.555-17.37-7.195c-4.64-4.639-7.195-10.808-7.195-17.369
	s2.555-12.73,7.195-17.369c6.183-6.184,15.278-8.619,23.736-6.361c4.002,1.065,8.112-1.309,9.181-5.312
	c1.069-4.002-1.309-8.112-5.311-9.181c-13.616-3.635-28.257,0.29-38.213,10.246c-7.473,7.473-11.588,17.408-11.588,27.977
	s4.116,20.504,11.588,27.976c7.473,7.474,17.408,11.589,27.977,11.589c10.568,0,20.503-4.115,27.976-11.588
	c9.968-9.968,13.89-24.627,10.235-38.256C406.462,321.881,402.35,319.507,398.348,320.58z"/>
<path d="M437.02,74.98C388.667,26.629,324.38,0,256,0S123.333,26.629,74.98,74.98C26.629,123.333,0,187.62,0,256
	s26.629,132.668,74.98,181.02C123.333,485.371,187.62,512,256,512s132.667-26.629,181.02-74.98C485.371,388.668,512,324.38,512,256
	S485.371,123.333,437.02,74.98z M426.413,426.413C380.894,471.932,320.374,497,256,497c-29.085,0-56.883-24.345-78.272-68.551
	c-22.228-45.937-34.47-107.18-34.47-172.449c0-22.266,1.48-44.279,4.322-65.444c2.713,0.517,5.465,0.778,8.218,0.778
	c11.158,0,22.316-4.247,30.811-12.741c10.979-10.979,15.298-27.123,11.272-42.132c-1.073-4.001-5.188-6.371-9.187-5.301
	c-4.001,1.073-6.374,5.187-5.301,9.187c2.642,9.849-0.19,20.44-7.39,27.64c-7.096,7.096-17.026,9.664-26.181,7.72
	c4.631-27.566,11.63-53.375,20.761-75.995c1.551-3.841-0.306-8.212-4.147-9.762c-3.842-1.552-8.212,0.306-9.762,4.147
	c-1.35,3.343-2.649,6.759-3.908,10.229c-10.496,0.716-20.262,5.132-27.777,12.647c-16.989,16.989-16.989,44.632,0,61.621
	c2.525,2.525,5.29,4.666,8.216,6.44c-3.253,22.918-4.946,46.815-4.946,70.967c0,67.485,12.773,131.05,35.967,178.982
	c11.894,24.582,25.888,43.688,41.249,56.726c-45.094-9.571-86.522-31.931-119.887-65.295C40.068,380.894,15,320.374,15,256
	S40.068,131.106,85.587,85.587c33.417-33.417,74.924-55.795,120.1-65.341c-12.445,10.506-24.017,24.943-34.235,42.968
	c-2.043,3.604-0.778,8.181,2.826,10.223c1.168,0.663,2.438,0.977,3.692,0.977c2.613,0,5.151-1.368,6.531-3.803
	C204.831,34.75,230.222,15,256,15c64.374,0,124.894,25.068,170.413,70.587S497,191.626,497,256S471.932,380.894,426.413,426.413z
	 M135.896,168.274c-0.1-0.097-0.203-0.188-0.302-0.287c-11.14-11.141-11.14-29.268,0-40.408c3.345-3.345,7.372-5.749,11.765-7.1
	C142.723,135.567,138.887,151.6,135.896,168.274z"/>
<path d="M223.936,256.517h-8.532v-8.533c0-4.142-3.358-7.5-7.5-7.5s-7.5,3.358-7.5,7.5v8.533h-8.532c-4.142,0-7.5,3.357-7.5,7.5
	s3.358,7.5,7.5,7.5h8.532v8.532c0,4.143,3.358,7.5,7.5,7.5s7.5-3.357,7.5-7.5v-8.532h8.532c4.142,0,7.5-3.357,7.5-7.5
	S228.078,256.517,223.936,256.517z"/>
<path d="M426.929,223.936l2.713-2.713c2.929-2.929,2.929-7.678,0-10.606c-2.929-2.929-7.678-2.929-10.606,0l-2.713,2.713
	l-2.713-2.713c-2.929-2.929-7.678-2.929-10.606,0c-2.929,2.929-2.929,7.678,0,10.606l2.713,2.713l-2.713,2.713
	c-2.929,2.929-2.929,7.678,0,10.606c1.464,1.464,3.384,2.197,5.303,2.197s3.839-0.732,5.303-2.197l2.713-2.713l2.713,2.713
	c1.464,1.464,3.384,2.197,5.303,2.197s3.839-0.732,5.303-2.197c2.929-2.929,2.929-7.678,0-10.606L426.929,223.936z"/>
<g>
</g>
<g>
</g>
<g>
</g>
<g>
</g>
<g>
</g>
<g>
</g>
<g>
</g>
<g>
</g>
<g>
</g>
<g>
</g>
<g>
</g>
<g>
</g>
<g>
</g>
<g>
</g>
<g>
</g>
</svg>
